<svg xmlns="http://www.w3.org/2000/svg" version="1.1" xmlns:xlink="http://www.w3.org/1999/xlink" xmlns:svgjs="http://svgjs.com/svgjs" width="1440" height="250" preserveAspectRatio="none" viewBox="0 0 1440 250"><g mask="url(&quot;#SvgjsMask1616&quot;)" fill="none"><rect width="1440" height="250" x="0" y="0" fill="url(#SvgjsLinearGradient1617)"></rect><path d="M6 250L256 0L545.5 0L295.5 250z" fill="url(#SvgjsLinearGradient1618)"></path><path d="M261.6 250L511.6 0L819.1 0L569.1 250z" fill="url(#SvgjsLinearGradient1618)"></path><path d="M511.20000000000005 250L761.2 0L858.7 0L608.7 250z" fill="url(#SvgjsLinearGradient1618)"></path><path d="M750.8000000000001 250L1000.8000000000001 0L1236.3000000000002 0L986.3000000000001 250z" fill="url(#SvgjsLinearGradient1618)"></path><path d="M1393 250L1143 0L1081.5 0L1331.5 250z" fill="url(#SvgjsLinearGradient1619)"></path><path d="M1175.4 250L925.4000000000001 0L614.9000000000001 0L864.9000000000001 250z" fill="url(#SvgjsLinearGradient1619)"></path><path d="M917.8 250L667.8 0L357.29999999999995 0L607.3 250z" fill="url(#SvgjsLinearGradient1619)"></path><path d="M726.1999999999999 250L476.19999999999993 0L293.19999999999993 0L543.1999999999999 250z" fill="url(#SvgjsLinearGradient1619)"></path><path d="M1299.2540124368595 250L1440 109.25401243685957L1440 250z" fill="url(#SvgjsLinearGradient1618)"></path><path d="M0 250L140.74598756314043 250L 0 109.25401243685957z" fill="url(#SvgjsLinearGradient1619)"></path></g><defs><mask id="SvgjsMask1616"><rect width="1440" height="250" fill="#ffffff"></rect></mask><linearGradient x1="20.66%" y1="-119%" x2="79.34%" y2="219%" gradientUnits="userSpaceOnUse" id="SvgjsLinearGradient1617"><stop stop-color="#0e2a47" offset="0"></stop><stop stop-color="rgba(76, 0, 158, 1)" offset="1"></stop></linearGradient><linearGradient x1="0%" y1="100%" x2="100%" y2="0%" id="SvgjsLinearGradient1618"><stop stop-color="rgba(15, 70, 185, 0.2)" offset="0"></stop><stop stop-opacity="0" stop-color="rgba(15, 70, 185, 0.2)" offset="0.66"></stop></linearGradient><linearGradient x1="100%" y1="100%" x2="0%" y2="0%" id="SvgjsLinearGradient1619"><stop stop-color="rgba(15, 70, 185, 0.2)" offset="0"></stop><stop stop-opacity="0" stop-color="rgba(15, 70, 185, 0.2)" offset="0.66"></stop></linearGradient></defs></svg>